<?xml version="1.0" encoding="utf-8"?>
<!-- Generator: Adobe Illustrator 24.3.0, SVG Export Plug-In . SVG Version: 6.00 Build 0)  -->
<svg version="1.1" id="Layer_1" xmlns="http://www.w3.org/2000/svg" xmlns:xlink="http://www.w3.org/1999/xlink" x="0px" y="0px"
	 viewBox="0 0 864 864" style="enable-background:new 0 0 864 864;" xml:space="preserve">
<path d="M850.58,403.86c-19.35-28.81-42.57-55.55-57.43-87.09c-18.44-39.3-55.01-43.54-96.49-36.21
	c-14.84,2.54,29.04-25.33,17.89-87.57c-3.15-17.16-23.96-72.23-45.67-91.45c-13.46-11.89-32.57-11.52-49.85-14.07
	c-23.96-3.58-20.8-34.93-61.68-35.42c-6.95,0-14.04-12.29-20.8-8.98c-53.73,26.75-96.91,35.96-103.89,105.58
	c1.41,83.1,2.79,82.09-1.89,83.18c-2.09,0.48-4.52-0.94-5.02-3.13c-7.52-25.51-10.61-53.71-9.28-84.6
	c-4.49-45.79-28.2-67.13-68.41-82.17c-23.49-8.78-27.15-16.23-33.84-16.5c-42.15-1.58-67.5,29.66-105.64,22.8
	c-11.24-2.02-18.5,0.53-21.77,7.64c-28.02,61.49-68.04,102.92-49,167.93c11.1,37.66,41.6,29.35,67.74,41.18
	c14.19,6.39,38.19,20.13,71.99,41.24c2.75,1.7,2.51,2.45-0.73,2.24c-34.57-2.09-43.84-26.14-153.25-46.03
	c-70.77-12.92-82.96,53.31-106.25,100c-11.1,22.2-2.79,41,15.89,54.34c1.66,1.17,2.3,2.77,1.94,4.79
	C23.61,503.56,51.75,569,125.07,563.97c36.26-2.46,73.99-18.16,61.92-8.61c-74.72,58.46-52.88,124.75-26.38,199.83
	c0.85,2.43,2.55,3.8,5.09,4.12c53.67,7.25,51.9,6.28,54.52,9.16c22.8,25.05,60.04,60.16,97.4,51.91
	c23.89-5.28,54.52-10.49,74.11-21.29c96.99-53.42,9.35-179.19,15.53-211.47c0.78-3.72,5.91-4.28,7.46-0.79
	c52.09,125.76,44.39,143.35,62.53,163.38c31.35,34.63,107.83,64.1,146.1,17.95c9.6-11.29,56.38,3.03,78.11-29.23
	c57.37-84.96,14.13-138.94-41.3-204.92c-19.01-22.76,97.84,88.46,142.94-12.13c9.09-20.32,5.39-49.98,11.16-55.13
	C836.69,446.52,855.44,411.24,850.58,403.86z M563.16,411.76c-18.88,3.48-42.91,2.75-59.72,9.9c-0.54,0.23-0.35-0.74-0.29,12.76
	c0.02,3.1-1.27,1.74,52.97,19.55c4.17,1.52,2.74,7.68-1.64,7.23c-34.65-4.72-50.65-14.7-51.48-13.31
	c-6.76,11.55-8.59,14.78-8.69,14.83c25.5,9.87,48.13,29.77,48.05,33.79c-0.03,2.22-2.47,3.6-4.42,2.5
	c-50.39-29.32-48.67-28.35-48.83-28.35c0.1,0.05-3.97,5.77-8.11,10.24c10.7,4.63,39.13,48.56,27.42,48.56
	c-2.05,0,0.25,2.28-32.41-41.82c-2.11-2.87,0.93,0.76-17.16,10.05c9,17.78,25,36.56,21.39,59.52c-0.48,3.14-2.91,3.6-4.27,0.59
	c-27.19-60.25-25.13-56.11-25.63-56.01l-13.74,2.68c5.22,27.1,0.05,59.47-4.43,59.47c-6.3-0.12-6.32-58.75-8.18-59.21
	c-13.99-3.3-12.58-2.99-12.89-2.99c0.1,0.09-8.66,27.01-21.64,55.09c-0.98,2.16-3.15,1.92-3.7-0.36
	c-4.58-18.66,9.27-40.2,15.54-57.14c0.26-0.7,1.51,0.38-15.21-10.49c-2.9,4.33-30.1,42.27-34.76,39.94
	c-2.88-1.41-2.7-16.43,29.46-44.88c0.24-0.22,0.24-0.19,0.02-0.43c-9.88-11.28-9.15-10.94-10.28-10.37
	c-50.28,25.68-46.64,24.17-48.1,23.74c-11.94-3.53,35.27-32.67,43.95-32.67c0.06-0.25,0.23,0.25-6.93-15.67
	c-1.48-3.39-11.42,5.76-56.12,12.51c-1.44,0.33-3.18-0.6-3.57-2.33c-0.88-3.81-1.08-2.5,57.24-22.94c0.9-0.31,0.58,0.48,0.58-14.86
	c0-0.8,4.01,0.04-58.41-8.55c-2.55-0.33-2.88-2.64-0.51-3.68c19.37-8.55,40.64-2.8,60.86,2.24c5.95-16.41,6.96-18.48,5.33-15.21
	c-12.78-6.39-36.8-14.67-45.89-25.92c-2.38-2.92,0.89-7.08,4.28-5.45c50.76,23.86,47.3,22.66,47.97,21.78
	c11.56-14.99,10.99-13.77,10.35-14.47c-7.19-7.89-28.01-27.43-29.67-36.13c-0.49-2.56,1.19-3.92,3.6-2.83
	c12.63,5.81,24.9,22.14,34.57,32.11c0.79,0.82,0.11,0.83,11.54-6.69c1.78-1.18-5.71-10.06-11.81-41.72
	c-0.92-4.65,5.76-6.6,7.49-2.17c16.85,43.15,15.2,40.05,16.46,39.94c13.81-1.16,13.17-0.77,13.32-1.88
	c6.98-53.9,6.16-51.78,8.05-52.2c3.09-0.68,12.96,12.42,4.95,54.32l14.98,3.88c21.81-49.08,20.52-47.71,22.87-47.71
	c3.25,0.06,10.65,10.53-12.74,48.99c-2.75,4.55-1.91-0.5,11.34,10.82c1.13-7.15,36.46-43.91,41.39-38.96
	c4.88,4.86-30.89,39.85-38.72,41.38c9.66,9.17,8.87,13.41,14.04,11.55c49.87-17.66,46.65-16.96,48.36-16.08
	c11.98,6.2-33.31,21.93-46.25,26.11c4.54,18.75,4.08,18.69,5.79,18.27C540.86,396.95,579.5,408.65,563.16,411.76z"/>
</svg>
